<?xml version="1.0" encoding="utf-8"?>
<!-- Generator: Adobe Illustrator 18.0.0, SVG Export Plug-In . SVG Version: 6.00 Build 0)  -->
<!DOCTYPE svg PUBLIC "-//W3C//DTD SVG 1.1//EN" "http://www.w3.org/Graphics/SVG/1.1/DTD/svg11.dtd">
<svg version="1.1" id="レイヤー_1" xmlns="http://www.w3.org/2000/svg" xmlns:xlink="http://www.w3.org/1999/xlink" x="0px"
	 y="0px" viewBox="0 0 768 768" enable-background="new 0 0 768 768" xml:space="preserve">
<path d="M704,768H64c-35.2,0-64-28.8-64-64V64C0,28.8,28.8,0,64,0h640c35.2,0,64,28.8,64,64v640C768,739.2,739.2,768,704,768z"/>
<g>
	<path fill="#FFFFFF" d="M312.8,396.4v117.6c0,4.9-4,8.9-8.9,8.9h-26.2c-4.9,0-8.9,4-8.9,8.9v104.4c0,4.9-4,8.9-8.9,8.9H125.1
		c-4.9,0-8.9-4-8.9-8.9V318.6c0-63.2,17.2-112.2,51.7-147.2c34.5-35,82.9-52.4,145.3-52.4c60.2,0,104.6,15.9,133.5,47.6
		c28.8,31.7,43.2,80.6,43.2,146.8v322.7c0,4.9-4,8.9-8.9,8.9H346.2c-4.9,0-8.9-4-8.9-8.9V323.5c0-20-2.4-34-7.1-41.7
		c-4.8-7.8-13.3-11.7-25.6-11.7c-23.8,0-35.7,17.8-35.7,53.4v55c0,4.9,4,8.9,8.9,8.9h26.2C308.8,387.5,312.8,391.5,312.8,396.4z"/>
	<g>
		<path fill="#FFFFFF" d="M567.6,151.4c0-3.5,2.9-6.4,6.4-6.4h47c6.6,0,12,2,16.2,6c4.2,4,6.3,9.2,6.3,15.6c0,5.2-1.6,9.6-4.9,13.1
			c-2.4,2.6-2.4,6.5,0,9.1c1,1.1,1.8,2.2,2.5,3.4c1.6,2.9,2.4,6.4,2.4,10.6c0,6.7-2.1,11.8-6.3,15.3c-4.2,3.5-10.2,5.3-18.1,5.3
			h-45.1c-3.5,0-6.4-2.9-6.4-6.4v-9.2c0-3.5,2.9-6.4,6.4-6.4h41.8c2.4,0,4-0.2,4.7-0.6c0.8-0.4,1.2-1.1,1.2-2.3
			c0-2.2-1.8-3.3-5.5-3.3h-42.1c-3.5,0-6.4-2.9-6.4-6.4v-9.2c0-3.5,2.9-6.4,6.4-6.4h41.8c2.4,0,3.9-0.2,4.7-0.6
			c0.8-0.4,1.2-1.2,1.2-2.3c0-2.2-2-3.3-5.9-3.3h-41.8c-3.5,0-6.4-2.9-6.4-6.4V151.4z"/>
		<path fill="#FFFFFF" d="M621,241.7v7.4c0,3.5-2.9,6.4-6.4,6.4h-24.1c-3.1,0-4.6,1.3-4.6,3.9c0,2.5,1.5,3.8,4.6,3.8h24.1
			c3.5,0,6.4,2.9,6.4,6.4v7.4c0,3.5-2.9,6.4-6.4,6.4h-23.7c-7,0-12.9-2.3-17.8-7s-7.2-10.4-7.2-17.2c0-7.7,2.8-13.9,8.4-18.6
			c4.4-3.7,10.5-5.5,18.2-5.5h22.1C618.1,235.3,621,238.2,621,241.7z"/>
		<path fill="#FFFFFF" d="M622.9,318.9c0,3.4-3,6.1-6.4,6.1h-15.9c0.8-1.4,1.2-2.7,1.2-3.9c0-3.7-2.8-5.5-8.5-5.5h-19.2
			c-3.5,0-6.4-2.9-6.4-6.4v-7.4c0-3.5,2.9-6.4,6.4-6.4h23.1c7.8,0,14,2.1,18.7,6.4C620.6,306,622.9,311.7,622.9,318.9
			C622.9,318.9,622.9,318.9,622.9,318.9z"/>
		<path fill="#FFFFFF" d="M587.9,361.1h-21c-0.3-1.7-0.4-3.2-0.4-4.6c0-8.1,2.7-14.9,8-20.4c5.4-5.4,12.1-8.1,20.1-8.1
			c7.9,0,14.5,2.7,20,8.2c5.5,5.5,8.2,12.1,8.2,20c0,8.8-2.6,15.7-7.7,20.7c-5.1,5-12.1,7.6-21,7.6h-20.1c-3.5,0-6.4-2.9-6.4-6.4
			v-7.4c0-3.5,2.9-6.4,6.4-6.4h18.6c2.9,0,5.1-0.7,6.8-2.1c1.7-1.4,2.6-3.3,2.6-5.6c0-2.1-0.8-4-2.3-5.5c-1.6-1.6-3.4-2.3-5.5-2.3
			c-2.2,0-4.1,0.7-5.5,2.1c-1.4,1.4-2.2,3.2-2.2,5.4C586.5,357.9,587,359.5,587.9,361.1z"/>
		<path fill="#FFFFFF" d="M615.3,416.6h-41.2c-3.5,0-6.4-2.9-6.4-6.4v-7.4c0-3.5,2.9-6.4,6.4-6.4h41.2c3.5,0,6.4,2.9,6.4,6.4v7.4
			C621.7,413.8,618.8,416.6,615.3,416.6z M645.9,406.6c0,2.7-1,5.1-2.9,7.1c-1.9,2-4.2,3-6.9,3c-2.8,0-5.1-0.9-6.9-2.8
			c-1.8-1.9-2.7-4.3-2.7-7.3c0-3,0.9-5.4,2.7-7.3c1.8-1.9,4.1-2.8,6.9-2.8c2.6,0,4.9,1,6.9,3C644.9,401.4,645.9,403.8,645.9,406.6z"
			/>
		<path fill="#FFFFFF" d="M641.7,462.8v9.2c0,3.5-2.9,6.4-6.4,6.4h-37.6c-3.4,0-5.7,0.6-6.9,1.7s-1.7,3.3-1.7,6.5v1.1h-21.5v-5.9
			c0-8,2.3-14.3,7-18.8c4.7-4.5,11.2-6.7,19.5-6.7h41.1C638.8,456.4,641.7,459.3,641.7,462.8z"/>
		<path fill="#FFFFFF" d="M587.9,523.7h-21c-0.3-1.7-0.4-3.2-0.4-4.6c0-8.1,2.7-14.9,8-20.4c5.4-5.4,12.1-8.1,20.1-8.1
			c7.9,0,14.5,2.7,20,8.2c5.5,5.5,8.2,12.1,8.2,20c0,8.8-2.6,15.7-7.7,20.7c-5.1,5-12.1,7.6-21,7.6h-20.1c-3.5,0-6.4-2.9-6.4-6.4
			v-7.4c0-3.5,2.9-6.4,6.4-6.4h18.6c2.9,0,5.1-0.7,6.8-2.1c1.7-1.4,2.6-3.3,2.6-5.6c0-2.1-0.8-4-2.3-5.5c-1.6-1.6-3.4-2.3-5.5-2.3
			c-2.2,0-4.1,0.7-5.5,2.1s-2.2,3.2-2.2,5.4C586.5,520.6,587,522.2,587.9,523.7z"/>
		<path fill="#FFFFFF" d="M641.7,571.7c0,3.5-2.9,6.4-6.4,6.4h-37.9c-7.2,0-10.8,2.6-10.8,7.8c0,2.2,0.8,4.1,2.3,5.6
			c1.5,1.5,3.3,2.3,5.5,2.3c2.2,0,4.1-0.7,5.6-2.2c1.5-1.4,2.3-3.2,2.3-5.3c0-1.5-0.7-3.2-2-5.1h22.4c0.2,2.4,0.3,4.2,0.3,5.4
			c0,10.8-5.5,19.3-16.4,25.8c-0.5,0.3-1.4,0.6-1.9,0.8c-12.4,3-22.3,0.6-29.8-7c-5.4-5.5-8.1-12.3-8.1-20.4c0-4.1,0.9-8,2.7-11.9
			c1.8-3.9,4.2-7,7.2-9.5c5.2-4.3,12-6.5,20.2-6.5h38.7c3.5,0,6.4,2.9,6.4,6.4V571.7z"/>
		<path fill="#FFFFFF" d="M591.5,628.1c1.2,5.3,0.1,9.6-3.4,13.1c-3.5,3.5-7.8,4.6-13.1,3.3c-0.6-0.1-1.6-0.6-2.1-0.9
			c-4.5-2.9-6.7-6.8-6.7-11.6c0-3.7,1.2-6.8,3.6-9.2c2.4-2.4,5.5-3.6,9.2-3.6c4.9,0,8.7,2.3,11.6,6.8
			C590.9,626.5,591.3,627.5,591.5,628.1z"/>
	</g>
</g>
<g>
</g>
<g>
</g>
<g>
</g>
<g>
</g>
<g>
</g>
<g>
</g>
<g>
</g>
<g>
</g>
<g>
</g>
<g>
</g>
<g>
</g>
<g>
</g>
<g>
</g>
<g>
</g>
<g>
</g>
</svg>
