<?xml version="1.0" encoding="utf-8"?>
<!-- Generator: Adobe Illustrator 18.0.0, SVG Export Plug-In . SVG Version: 6.00 Build 0)  -->
<!DOCTYPE svg PUBLIC "-//W3C//DTD SVG 1.1//EN" "http://www.w3.org/Graphics/SVG/1.1/DTD/svg11.dtd">
<svg version="1.1" id="レイヤー_1" xmlns="http://www.w3.org/2000/svg" xmlns:xlink="http://www.w3.org/1999/xlink" x="0px"
	 y="0px" viewBox="0 0 1080 420" enable-background="new 0 0 1080 420" xml:space="preserve">
<g>
	<path d="M175.2,216.2v70.1c0,2.9-2.4,5.3-5.3,5.3h-15.6c-2.9,0-5.3,2.4-5.3,5.3v62.2c0,2.9-2.4,5.3-5.3,5.3H63.2
		c-2.9,0-5.3-2.4-5.3-5.3V169.9c0-37.7,10.3-66.9,30.8-87.8c20.6-20.8,49.4-31.3,86.6-31.3c35.9,0,62.4,9.5,79.6,28.4
		c17.2,18.9,25.8,48.1,25.8,87.5v192.4c0,2.9-2.4,5.3-5.3,5.3h-80.4c-2.9,0-5.3-2.4-5.3-5.3V172.8c0-12-1.4-20.2-4.3-24.9
		c-2.8-4.6-7.9-6.9-15.2-6.9c-14.2,0-21.3,10.6-21.3,31.8v32.8c0,2.9,2.4,5.3,5.3,5.3h15.6C172.8,210.9,175.2,213.3,175.2,216.2z"/>
	<path d="M452.3,143.3v76.8c0,4.3-3.2,6.3-7.2,4.9c-3.1-1.1-6-1.6-8.7-1.6c-15.2,0-22.9,11.7-22.9,35v100.7c0,2.9-2.4,5.3-5.3,5.3
		H335c-2.9,0-5.3-2.4-5.3-5.3V242.3c0-32.3,8.8-58,26.5-77.2c17.6-19.2,41.2-28.8,70.6-28.8c5.6,0,12.6,0.6,21,1.8
		C450.2,138.4,452.3,140.8,452.3,143.3z"/>
	<path d="M617.6,261.5l73.6-2.8c3.4-0.1,5.9,2.6,5.5,6c-3.4,29.5-15.2,53.9-35.5,73.4c-21.7,20.8-48.1,31.2-79.1,31.2
		c-32.9,0-60.6-11.4-83.3-34.3c-22.6-22.9-34-50.9-34-84.1c0-31.5,11.4-58.5,34.3-80.9c22.9-22.4,50.3-33.6,82.3-33.6
		c27.9,0,52.6,8.8,74,26.5c19.7,16.3,32.5,36.6,38.5,61.1c0.9,3.5-1.4,6.5-5,6.6l-76.1,2.8c-1.4,0.1-3.2-0.8-4.1-1.9
		c-7.1-8.2-15.8-12.4-26.2-12.4c-9.6,0-17.4,3.1-23.5,9.4c-6.1,6.3-9.2,14.2-9.2,23.8c0,9.7,3.3,17.9,9.8,24.4
		c6.5,6.6,14.6,9.9,24.3,9.9c13.3,0,23-7.3,29.1-21.8C613.7,263,615.8,261.5,617.6,261.5z"/>
	<path d="M817.7,63.8v78.4c0,5.1,3.6,7.1,8,4.5c11.5-6.8,23-10.2,34.6-10.2c21.5,0,38.6,7.8,51.2,23.3c12.6,15.5,18.9,36.5,18.9,63
		v136.4c0,2.9-2.4,5.3-5.3,5.3h-73.2c-2.9,0-5.3-2.4-5.3-5.3V246.3c0-9.6-1-16-3-19.3c-2-3.3-5.9-4.9-11.8-4.9
		c-9.4,0-14.1,6.9-14.1,20.8v116.2c0,2.9-2.4,5.3-5.3,5.3h-73.2c-2.9,0-5.3-2.4-5.3-5.3V63.8c0-2.9,2.4-5.3,5.3-5.3h73.2
		C815.3,58.5,817.7,60.9,817.7,63.8z"/>
</g>
<g>
	<path d="M974.3,63.9c0-2.2,1.8-3.9,3.9-3.9h28.6c4,0,7.3,1.2,9.9,3.7c2.6,2.4,3.8,5.6,3.8,9.5c0,3.2-1,5.8-3,8
		c-1.5,1.6-1.5,3.9,0,5.5c0.6,0.7,1.1,1.3,1.5,2c1,1.7,1.5,3.9,1.5,6.4c0,4.1-1.3,7.2-3.8,9.3c-2.6,2.2-6.2,3.2-11,3.2h-27.5
		c-2.2,0-3.9-1.8-3.9-3.9v-5.6c0-2.2,1.8-3.9,3.9-3.9h25.4c1.5,0,2.4-0.1,2.9-0.3c0.5-0.2,0.7-0.7,0.7-1.4c0-1.3-1.1-2-3.4-2h-25.7
		c-2.2,0-3.9-1.8-3.9-3.9V81c0-2.2,1.8-3.9,3.9-3.9h25.4c1.4,0,2.4-0.1,2.9-0.4c0.5-0.2,0.7-0.7,0.7-1.4c0-1.3-1.2-2-3.6-2h-25.4
		c-2.2,0-3.9-1.8-3.9-3.9V63.9z"/>
	<path d="M1006.8,118.8v4.5c0,2.2-1.8,3.9-3.9,3.9h-14.7c-1.9,0-2.8,0.8-2.8,2.3c0,1.5,0.9,2.3,2.8,2.3h14.7c2.2,0,3.9,1.8,3.9,3.9
		v4.5c0,2.2-1.8,3.9-3.9,3.9h-14.5c-4.3,0-7.9-1.4-10.8-4.3s-4.4-6.3-4.4-10.4c0-4.7,1.7-8.5,5.1-11.3c2.7-2.2,6.4-3.3,11.1-3.3
		h13.5C1005,114.9,1006.8,116.7,1006.8,118.8z"/>
	<path d="M1007.9,165.9c0,2.1-1.8,3.7-3.9,3.7h-9.7c0.5-0.9,0.7-1.6,0.7-2.3c0-2.2-1.7-3.4-5.2-3.4h-11.7c-2.2,0-3.9-1.8-3.9-3.9
		v-4.5c0-2.2,1.8-3.9,3.9-3.9h14.1c4.8,0,8.6,1.3,11.4,3.9C1006.5,158,1007.9,161.5,1007.9,165.9
		C1007.9,165.8,1007.9,165.8,1007.9,165.9z"/>
	<path d="M986.6,191.5h-12.8c-0.2-1-0.3-1.9-0.3-2.8c0-5,1.6-9.1,4.9-12.4c3.3-3.3,7.4-5,12.3-5c4.8,0,8.8,1.7,12.2,5s5,7.4,5,12.2
		c0,5.3-1.6,9.5-4.7,12.6c-3.1,3.1-7.4,4.6-12.8,4.6h-12.2c-2.2,0-3.9-1.8-3.9-3.9v-4.5c0-2.2,1.8-3.9,3.9-3.9h11.4
		c1.7,0,3.1-0.4,4.2-1.3c1-0.8,1.6-2,1.6-3.4c0-1.3-0.5-2.4-1.4-3.4c-0.9-0.9-2.1-1.4-3.4-1.4c-1.4,0-2.5,0.4-3.4,1.3
		c-0.9,0.9-1.3,2-1.3,3.3C985.8,189.6,986.1,190.6,986.6,191.5z"/>
	<path d="M1003.3,225.4h-25.1c-2.2,0-3.9-1.8-3.9-3.9V217c0-2.2,1.8-3.9,3.9-3.9h25.1c2.2,0,3.9,1.8,3.9,3.9v4.5
		C1007.2,223.6,1005.5,225.4,1003.3,225.4z M1021.9,219.3c0,1.7-0.6,3.1-1.8,4.3c-1.2,1.2-2.6,1.8-4.2,1.8c-1.7,0-3.1-0.6-4.2-1.7
		c-1.1-1.2-1.7-2.6-1.7-4.4s0.6-3.3,1.7-4.4c1.1-1.2,2.5-1.7,4.2-1.7c1.6,0,3,0.6,4.2,1.8C1021.3,216.1,1021.9,217.6,1021.9,219.3z"
		/>
	<path d="M1019.4,253.5v5.6c0,2.2-1.8,3.9-3.9,3.9h-22.9c-2.1,0-3.5,0.3-4.2,1c-0.7,0.7-1,2-1,4v0.7h-13.1v-3.6
		c0-4.9,1.4-8.7,4.3-11.4c2.9-2.7,6.8-4.1,11.9-4.1h25C1017.6,249.6,1019.4,251.4,1019.4,253.5z"/>
	<path d="M986.6,290.6h-12.8c-0.2-1-0.3-1.9-0.3-2.8c0-5,1.6-9.1,4.9-12.4c3.3-3.3,7.4-5,12.3-5c4.8,0,8.8,1.7,12.2,5s5,7.4,5,12.2
		c0,5.3-1.6,9.5-4.7,12.6c-3.1,3.1-7.4,4.6-12.8,4.6h-12.2c-2.2,0-3.9-1.8-3.9-3.9v-4.5c0-2.2,1.8-3.9,3.9-3.9h11.4
		c1.7,0,3.1-0.4,4.2-1.3c1-0.8,1.6-2,1.6-3.4c0-1.3-0.5-2.4-1.4-3.4s-2.1-1.4-3.4-1.4c-1.4,0-2.5,0.4-3.4,1.3s-1.3,2-1.3,3.3
		C985.8,288.7,986.1,289.7,986.6,290.6z"/>
	<path d="M1019.4,319.8c0,2.2-1.8,3.9-3.9,3.9h-23.1c-4.4,0-6.6,1.6-6.6,4.7c0,1.3,0.5,2.5,1.4,3.4c0.9,0.9,2,1.4,3.3,1.4
		c1.3,0,2.5-0.4,3.4-1.3c0.9-0.9,1.4-2,1.4-3.2c0-0.9-0.4-1.9-1.2-3.1h13.6c0.1,1.5,0.2,2.6,0.2,3.3c0,6.6-3.3,11.8-10,15.7
		c-0.3,0.2-0.8,0.4-1.2,0.5c-7.5,1.8-13.6,0.4-18.2-4.3c-3.3-3.4-5-7.5-5-12.4c0-2.5,0.5-4.9,1.6-7.2c1.1-2.3,2.5-4.3,4.4-5.8
		c3.2-2.6,7.3-4,12.3-4h23.6c2.2,0,3.9,1.8,3.9,3.9V319.8z"/>
	<path d="M988.8,354.2c0.7,3.2,0.1,5.9-2.1,8c-2.1,2.1-4.8,2.8-8,2c-0.4-0.1-1-0.3-1.3-0.6c-2.7-1.8-4.1-4.1-4.1-7.1
		c0-2.3,0.7-4.1,2.2-5.6c1.5-1.5,3.3-2.2,5.6-2.2c3,0,5.3,1.4,7.1,4.1C988.4,353.2,988.7,353.8,988.8,354.2z"/>
</g>
<g>
</g>
<g>
</g>
<g>
</g>
<g>
</g>
<g>
</g>
<g>
</g>
<g>
</g>
<g>
</g>
<g>
</g>
<g>
</g>
<g>
</g>
<g>
</g>
<g>
</g>
<g>
</g>
<g>
</g>
</svg>
